<?xml version="1.0" encoding="utf-8"?>
<!-- Generator: Adobe Illustrator 23.1.0, SVG Export Plug-In . SVG Version: 6.00 Build 0)  -->
<svg version="1.1" id="Layer_1" xmlns="http://www.w3.org/2000/svg" xmlns:xlink="http://www.w3.org/1999/xlink" x="0px" y="0px"
	 viewBox="0 0 1200 1200" enable-background="new 0 0 1200 1200" xml:space="preserve">
<g>
	<path fill="#2A2E42" d="M50.007,625.488l0.071,2.678c0.004,0.13,0.011,0.261,0.02,0.391c0.578,7.682,5.47,14.064,12.421,16.485
		c0.429,5.246,0.932,10.476,1.505,15.64c-6.347,3.729-9.875,10.949-8.895,18.613l0.338,2.648
		c1.106,7.817,6.594,13.808,13.952,15.574c0.946,5.212,1.96,10.38,3.032,15.45c-5.927,4.346-8.703,11.868-6.965,19.385l0.606,2.607
		c1.705,7.472,7.855,13.024,15.339,14.098c1.46,5.111,2.984,10.17,4.561,15.128c-5.44,4.91-7.442,12.652-4.967,19.945l0.859,2.536
		c2.413,7.243,9.062,12.158,16.604,12.508c1.949,4.903,3.973,9.791,6.057,14.621c-4.908,5.42-6.132,13.309-2.965,20.315l1.101,2.433
		c3.192,6.98,10.269,11.194,17.763,10.817c2.397,4.629,4.899,9.29,7.486,13.943c-4.362,5.877-4.812,13.851-0.976,20.516l1.337,2.319
		c4.056,6.759,11.372,10.166,18.793,9.007c2.834,4.355,5.776,8.735,8.799,13.095c-3.795,6.279-3.482,14.281,0.983,20.555
		l1.551,2.177c0.06,0.085,0.121,0.167,0.185,0.249c4.714,6.114,12.336,8.719,19.495,6.857c3.247,4.058,6.59,8.111,9.996,12.126
		c-3.201,6.628-2.127,14.596,2.929,20.431l1.332,1.531c0.087,0.098,0.176,0.196,0.267,0.293l0.435,0.452
		c5.321,5.591,13.156,7.428,20.073,4.869c1.839,1.892,3.678,3.761,5.506,5.586c1.826,1.826,3.695,3.667,5.587,5.507
		c-2.555,6.91-0.725,14.747,4.867,20.073l0.484,0.459c0.078,0.073,0.155,0.146,0.235,0.217l1.567,1.364
		c5.824,5.052,13.791,6.121,20.418,2.92c4.012,3.402,8.068,6.745,12.128,9.996c-1.865,7.161,0.74,14.777,6.855,19.495
		c0.082,0.064,0.167,0.126,0.251,0.185l2.175,1.549c6.274,4.471,14.279,4.782,20.559,0.987c4.36,3.021,8.737,5.961,13.095,8.799
		c-1.158,7.408,2.237,14.728,8.879,18.72l2.44,1.405c6.667,3.841,14.649,3.391,20.523-0.971c4.643,2.58,9.304,5.081,13.943,7.483
		c-0.38,7.485,3.834,14.573,10.789,17.749l2.461,1.115c7.008,3.169,14.895,1.947,20.313-2.966c4.826,2.084,9.716,4.108,14.623,6.055
		c0.348,7.547,5.269,14.196,12.553,16.625l2.486,0.843c7.3,2.47,15.041,0.471,19.952-4.968c4.953,1.572,10.01,3.096,15.124,4.558
		c1.076,7.483,6.63,13.636,14.127,15.345l2.575,0.599c7.522,1.737,15.046-1.037,19.389-6.967c5.082,1.076,10.248,2.091,15.451,3.034
		c1.764,7.357,7.743,12.844,15.46,13.938l2.76,0.352c7.659,0.989,14.886-2.548,18.615-8.895c5.164,0.573,10.394,1.076,15.64,1.506
		c2.42,6.951,8.802,11.843,16.486,12.421c0.13,0.009,0.26,0.016,0.391,0.021l2.68,0.071c7.65,0.126,14.548-4.031,17.633-10.716
		c5.349,0.08,10.467,0.08,15.7,0c3.016,6.532,9.61,10.723,17.109,10.723c0.176,0,0.349-0.002,0.528-0.007l2.678-0.071
		c0.13-0.004,0.26-0.011,0.391-0.021c7.684-0.578,14.066-5.472,16.486-12.421c5.248-0.429,10.476-0.932,15.64-1.506
		c3.729,6.347,10.965,9.884,18.612,8.895l2.651-0.338c7.817-1.108,13.807-6.594,15.571-13.952c5.214-0.946,10.38-1.961,15.45-3.032
		c4.344,5.927,11.868,8.701,19.387,6.964l2.605-0.605c7.469-1.704,13.024-7.855,14.1-15.339c5.095-1.455,10.152-2.979,15.124-4.558
		c4.91,5.44,12.654,7.447,19.947,4.968l2.523-0.855c7.255-2.417,12.174-9.066,12.521-16.613c4.901-1.944,9.791-3.969,14.624-6.055
		c5.42,4.91,13.309,6.135,20.315,2.964l2.431-1.099c6.983-3.19,11.196-10.277,10.817-17.76c4.629-2.399,9.29-4.901,13.942-7.485
		c5.875,4.362,13.849,4.814,20.514,0.976l2.312-1.33c6.768-4.062,10.175-11.39,9.016-18.8c4.36-2.838,8.737-5.781,13.095-8.799
		c6.279,3.793,14.283,3.48,20.557-0.985l2.175-1.551c0.085-0.059,0.167-0.121,0.249-0.185c6.117-4.714,8.724-12.331,6.86-19.495
		c4.056-3.249,8.109-6.59,12.126-9.996c6.635,3.199,14.596,2.129,20.432-2.932l1.529-1.33c0.089-0.078,0.176-0.158,0.263-0.24
		l0.482-0.459c5.591-5.321,7.424-13.161,4.869-20.073c1.908-1.855,3.777-3.695,5.586-5.507c1.821-1.821,3.663-3.69,5.507-5.586
		c6.916,2.552,14.751,0.722,20.075-4.872l0.43-0.45c0.082-0.087,0.162-0.174,0.24-0.263l1.362-1.563
		c5.056-5.829,6.13-13.799,2.929-20.427c3.407-4.017,6.747-8.07,9.996-12.128c7.158,1.866,14.778-0.738,19.493-6.857
		c0.064-0.082,0.125-0.165,0.185-0.249l1.549-2.175c4.467-6.274,4.782-14.278,0.989-20.557c3.016-4.353,5.959-8.731,8.797-13.095
		c7.419,1.167,14.73-2.239,18.722-8.884l1.407-2.443c3.834-6.667,3.384-14.639-0.975-20.516c2.584-4.648,5.086-9.311,7.485-13.943
		c7.51,0.372,14.573-3.834,17.747-10.792l1.113-2.454c3.171-7.008,1.949-14.896-2.964-20.318c2.089-4.835,4.113-9.724,6.06-14.623
		c7.542-0.35,14.191-5.269,16.62-12.556l0.847-2.5c2.47-7.282,0.469-15.023-4.972-19.934c1.581-4.974,3.105-10.033,4.561-15.128
		c7.481-1.076,13.632-6.629,15.345-14.123l0.596-2.58c1.739-7.522-1.037-15.044-6.962-19.387c1.072-5.07,2.086-10.239,3.032-15.453
		c7.357-1.764,12.843-7.746,13.938-15.459l0.352-2.76c0.975-7.666-2.55-14.884-8.895-18.613c0.574-5.164,1.076-10.394,1.506-15.643
		c6.948-2.42,11.84-8.801,12.418-16.483c0.009-0.13,0.016-0.26,0.021-0.391l0.073-2.669c0.197-7.725-4.035-14.56-10.716-17.646
		c0.039-2.66,0.057-5.285,0.057-7.849c0-2.566-0.018-5.191-0.057-7.851c6.681-3.087,10.913-9.919,10.716-17.632l-0.073-2.682
		c-0.005-0.13-0.012-0.26-0.021-0.391c-0.578-7.682-5.47-14.063-12.418-16.483c-0.429-5.253-0.934-10.481-1.506-15.64
		c6.345-3.729,9.871-10.949,8.895-18.61l-0.338-2.653c-1.106-7.817-6.592-13.808-13.952-15.572
		c-0.944-5.205-1.958-10.371-3.034-15.453c5.927-4.343,8.703-11.865,6.964-19.385l-0.599-2.593
		c-1.711-7.483-7.862-13.033-15.343-14.112c-1.462-5.116-2.986-10.172-4.561-15.128c5.44-4.91,7.442-12.651,4.967-19.945
		l-0.859-2.536c-2.413-7.238-9.062-12.156-16.606-12.507c-1.943-4.892-3.969-9.784-6.057-14.623
		c4.913-5.422,6.135-13.31,2.964-20.315l-1.101-2.433c-3.185-6.98-10.319-11.194-17.758-10.814
		c-2.401-4.634-4.903-9.297-7.485-13.943c4.36-5.877,4.81-13.85,0.975-20.513l-1.327-2.31c-4.067-6.769-11.381-10.177-18.802-9.019
		c-2.838-4.361-5.779-8.74-8.797-13.096c3.793-6.279,3.48-14.283-0.987-20.556l-1.551-2.176c-0.06-0.085-0.121-0.168-0.185-0.25
		c-4.716-6.115-12.332-8.718-19.493-6.856c-3.25-4.058-6.59-8.113-9.996-12.127c3.201-6.631,2.127-14.6-2.934-20.432l-1.357-1.559
		c-0.069-0.079-0.139-0.157-0.213-0.233l-0.445-0.467c-5.331-5.605-13.173-7.442-20.087-4.883c-1.853-1.907-3.692-3.775-5.507-5.587
		c-1.816-1.816-3.683-3.657-5.586-5.507c2.554-6.915,0.722-14.755-4.874-20.076l-0.478-0.456c-0.087-0.082-0.174-0.163-0.263-0.241
		l-1.531-1.331c-5.833-5.059-13.803-6.129-20.429-2.929c-4.015-3.407-8.068-6.749-12.126-9.997
		c1.862-7.163-0.743-14.781-6.857-19.496c-0.082-0.064-0.167-0.125-0.251-0.186l-2.175-1.549
		c-6.274-4.467-14.279-4.779-20.557-0.986c-4.36-3.021-8.738-5.963-13.095-8.798c1.159-7.41-2.237-14.731-8.884-18.721l-2.45-1.411
		c-6.656-3.833-14.63-3.385-20.509,0.978c-4.65-2.584-9.313-5.087-13.942-7.485c0.382-7.486-3.832-14.573-10.792-17.749
		l-2.454-1.111c-7.01-3.171-14.897-1.948-20.317,2.962c-4.837-2.087-9.727-4.113-14.624-6.056
		c-0.349-7.545-5.269-14.195-12.555-16.623l-2.479-0.843c-7.305-2.465-15.046-0.473-19.954,4.968
		c-4.967-1.578-10.024-3.102-15.126-4.558c-1.076-7.483-6.631-13.635-14.127-15.348l-2.573-0.597
		c-7.524-1.742-15.051,1.035-19.392,6.964c-5.084-1.076-10.248-2.089-15.45-3.033c-1.764-7.357-7.743-12.843-15.459-13.937
		l-2.763-0.353c-7.666-0.981-14.884,2.547-18.615,8.895c-5.152-0.571-10.38-1.075-15.637-1.506
		c-2.42-6.949-8.802-11.843-16.486-12.421c-0.13-0.009-0.26-0.016-0.391-0.019l-2.683-0.072
		c-7.652-0.245-14.546,4.029-17.633,10.716c-5.292-0.074-10.417-0.074-15.7,0c-3.087-6.685-9.871-10.909-17.637-10.716l-2.675,0.072
		c-0.13,0.003-0.26,0.01-0.391,0.019c-7.684,0.578-14.066,5.471-16.486,12.421c-5.258,0.431-10.485,0.935-15.64,1.506
		c-3.729-6.348-10.958-9.875-18.615-8.895l-2.648,0.338c-7.817,1.107-13.808,6.594-15.571,13.951
		c-5.21,0.945-10.376,1.959-15.453,3.033c-4.339-5.929-11.858-8.702-19.385-6.965l-2.6,0.602
		c-7.476,1.708-13.026,7.86-14.104,15.342c-5.107,1.459-10.166,2.983-15.126,4.56c-4.912-5.439-12.656-7.439-19.945-4.97
		l-2.532,0.859c-7.247,2.415-12.165,9.064-12.512,16.609c-4.901,1.945-9.791,3.971-14.623,6.057
		c-5.42-4.914-13.305-6.141-20.317-2.964l-2.433,1.101c-6.978,3.184-11.194,10.272-10.812,17.759
		c-4.639,2.401-9.3,4.903-13.943,7.484c-5.876-4.362-13.851-4.814-20.516-0.976l-2.31,1.33c-6.768,4.064-10.172,11.391-9.017,18.8
		c-4.358,2.836-8.737,5.777-13.095,8.798c-6.283-3.795-14.287-3.48-20.559,0.986l-2.175,1.549c-0.084,0.062-0.168,0.123-0.253,0.187
		c-6.112,4.718-8.717,12.335-6.853,19.495c-4.058,3.248-8.112,6.591-12.126,9.997c-6.631-3.203-14.601-2.131-20.432,2.93
		l-1.555,1.354c-0.08,0.071-0.158,0.143-0.235,0.217l-0.471,0.445c-5.603,5.335-7.437,13.175-4.881,20.088
		c-1.892,1.838-3.761,3.679-5.587,5.505c-1.816,1.815-3.656,3.683-5.506,5.587c-6.915-2.556-14.752-0.723-20.075,4.87l-0.46,0.48
		c-0.082,0.087-0.162,0.175-0.24,0.265l-1.33,1.529c-5.061,5.834-6.132,13.802-2.931,20.432c-3.409,4.018-6.752,8.072-9.996,12.126
		c-7.159-1.862-14.779,0.74-19.495,6.856c-0.064,0.082-0.125,0.166-0.185,0.25l-1.549,2.175c-4.467,6.276-4.78,14.279-0.985,20.558
		c-3.023,4.359-5.964,8.738-8.799,13.095c-7.419-1.159-14.731,2.237-18.72,8.881l-1.414,2.452
		c-3.834,6.657-3.383,14.629,0.981,20.508c-2.584,4.65-5.087,9.311-7.486,13.943c-7.455-0.393-14.571,3.832-17.749,10.791
		l-1.113,2.454c-3.169,7.01-1.947,14.9,2.966,20.32c-2.091,4.839-4.115,9.729-6.057,14.621c-7.545,0.35-14.196,5.271-16.622,12.556
		l-0.848,2.5c-2.47,7.284-0.468,15.023,4.972,19.933c-1.575,4.956-3.098,10.012-4.561,15.128
		c-7.483,1.076-13.636,6.631-15.345,14.127l-0.599,2.575c-1.738,7.522,1.038,15.044,6.967,19.387
		c-1.076,5.082-2.091,10.248-3.034,15.451c-7.358,1.766-12.844,7.748-13.938,15.462l-0.352,2.76
		c-0.98,7.661,2.548,14.884,8.895,18.615c-0.571,5.159-1.076,10.387-1.505,15.638c-6.951,2.422-11.843,8.804-12.421,16.485
		c-0.009,0.131-0.016,0.261-0.02,0.391l-0.071,2.682c-0.201,7.712,4.03,14.546,10.716,17.632c-0.039,2.66-0.057,5.285-0.057,7.851
		c0,2.564,0.019,5.189,0.057,7.849C54.038,610.938,49.806,617.772,50.007,625.488z M123.797,600.003
		c0-262.58,213.623-476.204,476.203-476.204c262.578,0,476.201,213.623,476.201,476.204c0,262.578-213.623,476.201-476.201,476.201
		C337.42,1076.204,123.797,862.581,123.797,600.003z"/>
	<path fill="#2A2E42" d="M154.077,654.974l-0.594,0.024l0.1,2.444l0.78-0.032c7.389,57.683,25.784,111.964,52.966,160.706
		l-0.154,0.069l1.008,2.229l0.345-0.156c29.624,52.445,69.473,98.371,116.832,135.061l0.943,0.868l0.078-0.085
		c75.827,58.399,170.729,93.188,273.618,93.188c79.999,0,155.167-21.042,220.302-57.844l0.118,0.261l2.232-1.008l-0.205-0.453
		c51.879-29.688,97.287-69.431,133.587-116.541l0.079,0.072c0.375-0.846,0.907-1.627,1.584-2.247
		c33.721-44.315,59.403-95.051,74.867-150.032c-0.003-0.029-0.013-0.053-0.016-0.081c-0.13-1.381,0.329-2.864,1.155-4.089
		c10.134-37.42,15.585-76.744,15.585-117.325c0-19.609-1.281-38.923-3.729-57.876c-0.131-0.408-0.227-0.839-0.27-1.3
		c-0.047-0.503,0.005-1.02,0.1-1.535l-0.217,0.009c-7.781-57.35-26.418-111.29-53.776-159.687l0.15-0.068
		c-0.79-0.7-1.398-1.595-1.71-2.686c-16.271-28.315-35.521-54.71-57.347-78.729l0.069-0.075l-0.946-0.871
		c-17.505-19.154-36.651-36.777-57.199-52.676l0.03-0.032c-0.459-0.284-0.92-0.57-1.36-0.883c-0.146-0.104-0.286-0.218-0.421-0.336
		c-0.161-0.141-0.311-0.294-0.464-0.444c-23.668-18.081-49.165-33.879-76.183-47.034l0.056-0.147l-1.447-0.546
		c-23.106-11.151-47.31-20.373-72.395-27.474c-0.308-0.01-0.658-0.029-1.114-0.055c-0.234-0.013-0.464-0.043-0.694-0.087
		c-1.126-0.213-2.208-0.623-3.307-0.939c-0.762-0.105-1.437-0.393-2.046-0.821c-29.617-7.857-60.401-12.814-92.064-14.419
		l-0.002-0.049l-0.621,0.025c-7.415-0.366-14.874-0.559-22.378-0.559c-18.959,0-37.644,1.193-55.992,3.484l-0.005-0.128
		c-0.104,0.015-0.197,0.059-0.303,0.069c-0.705,0.139-1.419,0.223-2.133,0.301l0.003,0.071
		c-57.334,7.479-111.293,25.823-159.767,52.869l-0.078-0.172c-0.051,0.034-0.101,0.069-0.154,0.099
		c-0.364,0.208-0.742,0.396-1.117,0.588c-0.004,0.002-0.007,0.004-0.01,0.006c-0.274,0.207-0.567,0.362-0.866,0.501l0.08,0.178
		c-51.545,29.13-96.793,68.137-133.158,114.446c-0.112,0.175-0.231,0.358-0.322,0.499c-0.133,0.205-0.293,0.467-0.448,0.692
		c-0.033,0.047-0.069,0.092-0.108,0.135c-0.386,0.423-0.841,0.786-1.268,1.162c-0.015,0.013-0.032,0.025-0.047,0.037l0.136,0.125
		c-34.276,44.322-60.473,95.189-76.338,150.392l-0.357-0.135c-0.096,0.558-0.207,1.113-0.279,1.674
		c-0.037,0.268-0.127,0.51-0.204,0.759l0.17,0.064c-10.886,38.683-16.724,79.458-16.724,121.573
		C150.71,618.611,151.869,636.952,154.077,654.974z M181.822,483.859L399,565.813l-232.268,9.53
		C168.506,543.841,173.654,513.229,181.822,483.859z M209.898,409.968l213.516,80.572l77.188,71.104l-95.351,3.912l-222.786-84.07
		C189.518,456.672,198.746,432.768,209.898,409.968z M638.176,580.902l0.077,1.884l-1.404-3.106L638.176,580.902z M634.272,573.979
		l-2.109-4.666l5.624,2.122l0.246,6.008L634.272,573.979z M638.521,589.324l0.107,2.593c-3.731-17.916-19.605-31.379-38.628-31.379
		c-9.397,0-18.016,3.297-24.794,8.781l2.471-2.683l13.883-6.276l15.223-0.625l14.256,5.38l11.205,10.322L638.521,589.324z
		 M558.278,561.726l0.443,10.794l-9.843,4.45l-6.595-14.588L558.278,561.726z M541.196,559.979l-13.621-30.133l29.857,11.267
		l0.745,18.169L541.196,559.979z M561.418,638.261l-17.13,0.703l6.053-16.041l10.611,4.004L561.418,638.261z M561.235,574.069
		l5.94-2.685l-1.943,5.148l-3.73,4.05L561.235,574.069z M574.612,558.608l3.637-9.639l9.183,3.465l-5.407,5.87L574.612,558.608z
		 M583.14,560.706l1.887-0.077l-3.112,1.407L583.14,560.706z M589.901,553.366l6.1,2.302l-5.018,2.268l-5.5,0.226L589.901,553.366z
		 M571.955,558.717l-11.331,0.465l-0.703-17.129l16.039,6.052L571.955,558.717z M549.885,579.2l8.943-4.043l0.327,7.972
		l-5.028,5.458L549.885,579.2z M556.479,599.73l-2.817,7.464l-7.22-6.65l6.979-7.576L556.479,599.73z M559.298,586.588l0.21,5.114
		l-1.806,4.787l-2.477-5.479L559.298,586.588z M559.764,597.953l0.14,3.409l-0.777-1.72L559.764,597.953z M560.172,607.901
		l0.225,5.498l-4.795-4.417l2.301-6.098L560.172,607.901z M560.844,624.271l-9.638-3.637l3.465-9.183l5.869,5.406L560.844,624.271z
		 M548.916,619.77l-14.978-5.652l10.846-11.774l7.946,7.32L548.916,619.77z M544.642,598.885l-12.609-11.615l15.621-7.061
		l4.672,10.335L544.642,598.885z M558.504,507.51l24.32,22.403l-6.001,15.902l-17.011-6.419L558.504,507.51z M584.765,531.701
		l11.774,10.846l-7.32,7.946l-10.106-3.814L584.765,531.701z M598.34,544.206l7.577,6.98l-6.762,3.057l-7.465-2.817L598.34,544.206z
		 M599.239,556.889l1.692,0.638l-3.414,0.14L599.239,556.889z M607.872,552.987l4.423,4.075l-5.114,0.21l-4.79-1.807
		L607.872,552.987z M599.997,542.406l11.614-12.609l7.062,15.621l-10.334,4.672L599.997,542.406z M619.681,547.648l4.043,8.944
		l-7.972,0.327l-5.458-5.028L619.681,547.648z M614.84,559.405l1.39,1.28l-3.197-1.206L614.84,559.405z M624.812,558.996
		l2.686,5.941l-5.15-1.943l-4.05-3.731L624.812,558.996z M628.922,568.091l0.744,1.646l-2.511-2.313L628.922,568.091z
		 M593.939,639.375l4.789,1.807l-5.48,2.477l-4.423-4.075L593.939,639.375z M602.843,639.322l-0.961,0.435l-0.903-0.34
		C601.604,639.401,602.225,639.366,602.843,639.322z M629.146,627.431l2.311-2.509l-0.666,1.765L629.146,627.431z M629.57,629.925
		l-2.124,5.627l-6.008,0.246l3.469-3.766L629.57,629.925z M632.723,628.499l7.271-3.287l0.403,9.808l-10.293,0.422L632.723,628.499z
		 M646.449,585.196l-5.868-5.405l-0.304-7.415l9.638,3.637L646.449,585.196z M647.458,589.452l7.219,6.65l-6.979,7.576l-3.057-6.762
		L647.458,589.452z M633.944,625.262l1.943-5.149l3.731-4.05l0.267,6.513L633.944,625.262z M639.702,558.385l17.129-0.703
		l-6.053,16.04l-10.61-4.004L639.702,558.385z M652.203,576.876l14.978,5.652l-10.847,11.775l-7.945-7.319L652.203,576.876z
		 M656.478,597.761l12.609,11.615l-15.621,7.062l-4.672-10.335L656.478,597.761z M651.234,617.446l-8.942,4.043l-0.327-7.973
		l5.026-5.456L651.234,617.446z M641.822,610.056l-0.21-5.115l1.805-4.785l2.477,5.479L641.822,610.056z M641.356,598.691
		l-0.139-3.405l0.776,1.717L641.356,598.691z M640.948,588.748l-0.226-5.5l4.794,4.417l-2.302,6.099L640.948,588.748z
		 M641.199,654.593l-16.039-6.053l4.004-10.611l11.332-0.465L641.199,654.593z M622.871,647.677l-9.183-3.465l5.406-5.869
		l7.413-0.304L622.871,647.677z M617.979,635.94l-1.888,0.077l3.112-1.407L617.979,635.94z M611.218,643.28l-6.099-2.302
		l5.016-2.268l5.5-0.226L611.218,643.28z M639.402,610.799l0.074,1.805l-1.279,1.388L639.402,610.799z M638.906,538.958
		l30.132-13.621l-11.268,29.859l-18.167,0.745L638.906,538.958z M659.487,557.573l31.887-1.308l-22.405,24.322l-15.901-6.001
		L659.487,557.573z M669.651,583.46l30.938,11.675l-29.081,13.146l-13.374-12.319L669.651,583.46z M694.515,632.8l-33.04,1.356
		l-7.002-15.489l16.569-7.49L694.515,632.8z M673.544,666.799l-29.856-11.266l-0.745-18.168l16.98-0.697L673.544,666.799z
		 M642.843,634.92l-0.443-10.795l9.842-4.449l6.595,14.588L642.843,634.92z M642.616,689.136l-24.321-22.404l6.001-15.902
		l17.012,6.42L642.616,689.136z M616.355,664.945l-11.774-10.846l7.32-7.946l10.106,3.814L616.355,664.945z M602.78,652.44
		l-7.577-6.98l6.762-3.057l7.465,2.817L602.78,652.44z M601.121,654.24l-11.614,12.608l-7.062-15.621l10.334-4.672L601.121,654.24z
		 M581.438,648.998l-4.044-8.945l7.972-0.327l5.458,5.028L581.438,648.998z M576.307,637.65l-2.686-5.942l5.148,1.943l4.052,3.732
		L576.307,637.65z M571.55,566.721l2.124-5.627l6.007-0.247l-3.469,3.766L571.55,566.721z M569.662,571.723l0.666-1.765l1.644-0.743
		L569.662,571.723z M573.241,628.949l-1.045-0.395l-0.482-1.067C572.205,627.993,572.724,628.47,573.241,628.949z M568.397,568.146
		l-7.27,3.287l-0.402-9.807l10.293-0.422L568.397,568.146z M568.956,627.332l-5.623-2.122l-0.246-6.006l3.761,3.464L568.956,627.332
		z M562.945,615.745l-0.077-1.881l1.402,3.102L562.945,615.745z M561.718,585.845l-0.074-1.804l1.279-1.388L561.718,585.845z
		 M562.215,657.688l-30.132,13.622l11.267-29.859l18.168-0.745L562.215,657.688z M541.632,639.073l-31.886,1.308l22.405-24.322
		l15.902,6.001L541.632,639.073z M531.468,613.185l-30.938-11.675l29.079-13.146l13.374,12.32L531.468,613.185z M506.605,563.846
		l33.039-1.356l7.002,15.489l-16.568,7.49L506.605,563.846z M504.06,561.502l-74.528-68.653l94.802,35.774l14.223,31.464
		L504.06,561.502z M488.203,442.75l67.754,62.414l1.366,33.293l-31.174-11.764L488.203,442.75z M554.208,402.813l41.738,92.329
		l-12.19,32.303l-25.394-23.392L554.208,402.813z M597.371,498.295l13.145,29.079l-12.32,13.374l-12.5-11.515L597.371,498.295z
		 M598.594,495.055l32.524-86.187l3.776,92.042l-22.575,24.507L598.594,495.055z M635.035,504.37l1.356,33.04l-15.486,7.001
		l-7.49-16.569L635.035,504.37z M636.5,540.045l0.656,15.996l-10.792,0.443l-4.451-9.845L636.5,540.045z M637.256,558.486
		l0.422,10.294l-6.941-2.619l-3.287-7.272L637.256,558.486z M637.382,501.823l68.652-74.526l-35.775,94.803l-31.461,14.222
		L637.382,501.823z M672.19,523.911l83.942-37.946l-62.415,67.756l-33.292,1.366L672.19,523.911z M694.833,556.123l101.244-4.154
		l-92.335,41.74l-32.303-12.19L694.833,556.123z M703.827,596.356l86.192,32.525l-92.046,3.777l-24.508-22.576L703.827,596.356z
		 M771.586,703.796l-94.801-35.774l-14.223-31.462l34.498-1.415L771.586,703.796z M712.916,753.895l-67.753-62.412l-1.366-33.294
		l31.173,11.763L712.916,753.895z M646.912,793.835l-41.738-92.33l12.19-32.303l25.395,23.393L646.912,793.835z M603.748,698.352
		l-13.145-29.079l12.319-13.373l12.501,11.515L603.748,698.352z M602.525,701.592l-32.522,86.183l-3.777-92.041L588.8,671.23
		L602.525,701.592z M566.085,692.275l-1.356-33.039l15.485-7l7.49,16.569L566.085,692.275z M564.621,656.6l-0.656-15.996
		l10.791-0.443l4.451,9.845L564.621,656.6z M563.865,638.16l-0.422-10.294l6.939,2.619l3.288,7.273L563.865,638.16z
		 M563.739,694.822l-68.652,74.527l35.775-94.802l31.462-14.223L563.739,694.822z M528.929,672.735l-83.943,37.947l62.415-67.756
		l33.292-1.366L528.929,672.735z M506.286,640.523l-101.244,4.154l92.335-41.74l32.303,12.19L506.286,640.523z M497.293,600.289
		l-86.19-32.524l92.044-3.777l24.508,22.576L497.293,600.289z M255.741,336.083L418.605,486.11l-207.612-78.344
		C223.596,382.368,238.61,358.375,255.741,336.083z M309.357,278.002l174.241,160.506l39.311,86.962l-98.185-37.051L257.236,334.134
		C272.944,313.928,290.389,295.139,309.357,278.002z M385.984,222.574l95.036,210.233L311.196,276.369
		C334.085,255.922,359.141,237.855,385.984,222.574z M457.967,189.914l93.546,206.936l4.302,104.856l-70.189-64.657l-97.497-215.676
		C410.286,208.926,433.635,198.366,457.967,189.914z M551.245,390.312l-90.96-201.215c26.27-8.956,53.669-15.443,81.916-19.219
		L551.245,390.312z M630.861,402.617l-33.693,89.285l-43.229-95.627l-9.303-226.739c18.132-2.319,36.611-3.516,55.363-3.516
		c7.1,0,14.158,0.184,21.176,0.523L630.861,402.617z M714.362,181.341l-81.29,215.418l-9.44-230.09
		C654.86,168.354,685.214,173.37,714.362,181.341z M788.38,209.078l-80.037,212.097l-71.104,77.188l-3.912-95.353l83.406-221.025
		C741.58,188.932,765.537,198.026,788.38,209.078z M862.053,254.313l-149.28,162.054l77.809-206.193
		C815.884,222.594,839.804,237.405,862.053,254.313z M920.421,307.618L760.37,481.364l-86.959,39.31l37.052-98.186l153.54-166.679
		C884.294,271.409,903.184,288.744,920.421,307.618z M976.192,383.801l-210.117,94.984L922.071,309.44
		C942.608,332.183,960.784,357.096,976.192,383.801z M1009.251,455.603l-207.217,93.674l-104.856,4.302l64.659-70.192L977.4,385.94
		C989.978,408.028,1000.659,431.324,1009.251,455.603z M1029.804,539.931l-221.238,9.077l201.502-91.09
		C1019.203,484.208,1025.869,511.637,1029.804,539.931z M1033.546,618.89l-237.277,9.735l-89.289-33.694l95.63-43.23l227.536-9.336
		c2.514,18.863,3.836,38.098,3.836,57.637C1033.982,606.333,1033.816,612.625,1033.546,618.89z M1019.107,712.715l-216.986-81.881
		l231.331-9.491C1031.922,652.789,1027.01,683.357,1019.107,712.715z M991.655,786.841l-213.952-80.737l-77.186-71.102l95.353-3.912
		l222.593,83.997C1011.614,739.963,1002.617,763.956,991.655,786.841z M946.231,861.348L782.513,710.535l208.076,78.519
		C978.147,814.655,963.256,838.85,946.231,861.348z M893.035,919.817L717.521,758.137l-39.312-86.962l98.186,37.051l168.341,155.071
		C929.176,883.621,911.874,902.541,893.035,919.817z M816.117,976.244L720.1,763.841l171.129,157.64
		C868.284,942.286,843.113,960.676,816.117,976.244z M744.307,1009.286l-94.7-209.488l-4.302-104.856l70.189,64.657l98.481,217.852
		C791.885,990.023,768.587,1000.7,744.307,1009.286z M659.049,1029.95l-9.174-223.614l92.114,203.768
		C715.412,1019.332,687.672,1026.039,659.049,1029.95z M580.086,1033.509l-9.826-239.484l33.691-89.281l43.229,95.629l9.433,229.919
		c-18.534,2.425-37.428,3.692-56.613,3.692C593.324,1033.984,586.689,1033.809,580.086,1033.509z M485.505,1018.626l82.545-218.743
		l9.582,233.531C545.909,1031.795,515.087,1026.726,485.505,1018.626z M411.495,990.864l81.281-215.394l71.105-77.189l3.912,95.351
		l-84.66,224.35C458.289,1011.027,434.335,1001.924,411.495,990.864z M336.789,944.805l151.557-164.525l-79.053,209.489
		C383.598,977.145,359.33,962.052,336.789,944.805z M278.593,891.313l162.155-176.031l86.959-39.311l-37.052,98.186L334.839,943.308
		C314.602,927.641,295.768,910.245,278.593,891.313z M222.524,813.932l212.52-96.071L276.959,889.473
		C256.245,866.38,237.963,841.068,222.524,813.932z M189.879,741.942l209.206-94.572l104.857-4.302l-64.66,70.193l-217.957,98.529
		C208.881,789.628,198.325,766.276,189.879,741.942z M169.731,656.779l222.821-9.142l-203.491,91.989
		C180.013,713.067,173.482,685.355,169.731,656.779z M166.016,600.003c0-7.447,0.19-14.85,0.563-22.205l238.273-9.776l89.288,33.693
		l-95.631,43.23l-229.098,9.4C167.177,636.539,166.016,618.404,166.016,600.003z"/>
	<path fill="#2A2E42" d="M586.28,637.241l-0.498-0.458c0.389,0.15,0.781,0.292,1.176,0.43L586.28,637.241z"/>
</g>
</svg>
