<?xml version="1.0" standalone="no"?>
<!DOCTYPE svg PUBLIC "-//W3C//DTD SVG 20010904//EN"
 "http://www.w3.org/TR/2001/REC-SVG-20010904/DTD/svg10.dtd">
<svg version="1.0" xmlns="http://www.w3.org/2000/svg"
 width="1000.000000pt" height="913.000000pt" viewBox="0 0 1000.000000 913.000000"
 preserveAspectRatio="xMidYMid meet">

<g transform="translate(0.000000,913.000000) scale(0.100000,-0.100000)"
fill="#000000" stroke="none">
<path d="M3555 7603 c-70 -9 -218 -33 -221 -35 -2 -2 11 -57 27 -123 47 -183
34 -270 -54 -358 -113 -113 -293 -106 -402 15 -46 51 -60 87 -101 251 -9 37
-20 67 -24 67 -8 0 -169 -66 -254 -104 l-58 -26 16 -25 c9 -13 41 -72 71 -130
51 -97 55 -110 55 -172 0 -81 -24 -140 -78 -196 -62 -65 -104 -82 -202 -82
-136 0 -190 40 -289 213 -29 50 -56 94 -60 97 -9 5 -38 -16 -189 -133 l-83
-64 90 -93 c117 -119 146 -176 139 -279 -10 -156 -124 -265 -278 -266 -95 0
-143 26 -255 140 -84 83 -96 93 -107 78 -87 -111 -188 -249 -188 -256 0 -6 44
-35 98 -66 105 -59 170 -119 198 -183 25 -55 23 -166 -3 -223 -58 -129 -218
-201 -346 -156 -20 8 -81 40 -134 71 -111 67 -103 70 -152 -49 -64 -153 -81
-207 -68 -211 7 -2 59 -17 117 -33 125 -35 153 -48 202 -99 55 -57 78 -115 78
-198 0 -114 -52 -200 -151 -250 -80 -41 -132 -42 -274 -5 -69 18 -128 31 -131
28 -4 -5 -43 -282 -44 -314 0 -8 45 -13 138 -16 96 -3 148 -10 175 -21 67 -29
114 -74 148 -142 28 -58 31 -71 27 -137 -5 -86 -26 -136 -81 -191 -65 -65
-112 -80 -269 -85 -93 -3 -138 -8 -138 -16 0 -18 29 -248 36 -283 3 -18 11
-33 18 -33 6 0 63 14 126 31 132 36 190 34 268 -5 100 -51 152 -137 152 -251
0 -83 -23 -141 -78 -198 -49 -51 -77 -64 -202 -99 -58 -16 -111 -31 -117 -33
-9 -3 -5 -26 17 -85 36 -98 96 -230 105 -230 3 0 53 27 111 61 126 72 187 88
267 70 176 -39 270 -222 200 -388 -24 -58 -90 -119 -198 -183 l-105 -62 93
-120 c50 -66 98 -127 104 -136 11 -13 26 -2 116 85 120 117 166 139 271 131
72 -6 116 -26 169 -77 54 -51 79 -104 85 -182 8 -111 -13 -155 -130 -275 l-98
-101 67 -55 c106 -85 191 -148 200 -148 4 0 33 44 63 98 100 177 153 217 290
217 98 0 140 -17 202 -82 52 -54 78 -115 78 -189 0 -86 -14 -121 -122 -302
l-20 -32 59 -26 c84 -38 245 -104 253 -104 4 0 15 30 24 67 41 164 55 200 101
251 104 115 274 128 392 28 17 -15 46 -54 62 -88 40 -80 40 -140 2 -289 -20
-77 -26 -116 -19 -120 11 -7 136 -24 256 -35 l72 -7 0 130 c0 154 13 201 73
269 112 127 302 127 414 0 60 -68 73 -116 73 -268 l0 -128 27 0 c46 0 298 32
305 39 4 4 -6 56 -22 116 -40 147 -40 212 1 293 16 34 45 73 62 88 115 97 286
87 388 -23 49 -53 60 -79 95 -217 14 -58 30 -106 34 -106 8 0 169 66 253 104
l59 26 -20 32 c-105 176 -122 217 -122 292 0 81 26 144 85 202 64 64 130 89
219 82 115 -10 178 -61 264 -216 31 -56 61 -102 65 -102 9 0 33 18 180 133
l88 69 -93 97 c-119 122 -133 150 -133 261 0 98 18 141 82 201 53 51 97 71
169 77 106 8 152 -14 272 -131 97 -96 103 -100 116 -82 8 11 53 70 100 130 47
61 86 115 86 120 0 6 -51 39 -112 75 -155 91 -201 156 -202 285 -1 130 75 234
197 270 98 29 151 16 301 -70 52 -30 99 -55 103 -55 4 0 18 24 30 53 87 208
103 251 96 257 -4 4 -55 20 -113 35 -127 34 -164 51 -212 102 -52 54 -78 115
-78 189 0 118 55 210 153 259 85 41 135 42 265 6 61 -17 118 -31 125 -31 14 0
33 101 53 271 l6 56 -140 5 c-126 4 -144 7 -195 32 -103 50 -159 140 -159 254
0 84 26 146 82 202 68 68 113 83 273 88 l138 5 -7 61 c-19 165 -30 231 -41
231 -6 0 -171 -65 -367 -145 l-355 -145 7 -40 c12 -68 7 -464 -6 -575 -64
-512 -254 -969 -572 -1380 -89 -115 -314 -341 -430 -434 -445 -353 -970 -554
-1531 -585 -662 -37 -1304 169 -1829 585 -116 93 -340 319 -430 434 -222 287
-391 615 -485 945 -32 110 -70 297 -87 425 -19 145 -16 547 5 695 90 611 345
1130 767 1556 478 484 1083 759 1755 798 645 37 1256 -149 1777 -542 138 -103
316 -272 419 -395 40 -48 78 -93 85 -100 25 -29 714 271 714 311 0 9 -19 36
-124 172 -39 50 -71 92 -73 94 -2 3 -47 -38 -101 -92 -114 -113 -158 -137
-252 -137 -153 0 -268 110 -278 266 -7 103 22 160 139 279 l90 92 -88 70
c-113 88 -182 137 -186 132 -2 -2 -28 -47 -57 -99 -96 -171 -154 -215 -290
-215 -75 0 -91 3 -132 27 -96 57 -148 148 -148 260 0 50 7 71 48 150 27 51 59
110 71 130 l23 38 -69 31 c-135 60 -234 99 -242 94 -5 -2 -14 -26 -20 -52 -39
-157 -62 -215 -107 -263 -121 -130 -322 -123 -425 14 -68 90 -75 170 -29 340
16 61 28 111 26 113 -5 6 -269 43 -303 43 l-33 0 0 -130 c0 -156 -17 -213 -82
-277 -113 -110 -280 -112 -391 -5 -72 69 -81 98 -85 265 l-4 147 -41 -1 c-23
-1 -55 -4 -72 -6z"/>
<path d="M8735 6755 c-33 -7 -148 -49 -255 -93 -107 -44 -1072 -436 -2145
-872 -1072 -435 -1969 -800 -1992 -810 -41 -18 -43 -18 -110 5 -37 12 -100 28
-139 35 -99 18 -287 8 -384 -20 -244 -69 -447 -241 -560 -474 -73 -152 -84
-203 -85 -391 0 -187 12 -246 82 -395 122 -262 347 -438 634 -496 111 -22 302
-15 409 16 235 68 448 242 551 450 l34 68 160 65 c88 36 966 392 1950 792 985
400 1885 765 2000 812 288 116 335 142 426 233 251 249 251 650 0 901 -153
153 -373 220 -576 174z m107 -356 c148 -31 251 -155 251 -304 0 -123 -56 -217
-165 -276 -57 -30 -71 -33 -143 -33 -72 0 -86 3 -143 33 -105 57 -162 153
-162 274 0 85 23 147 76 206 57 64 117 93 226 110 4 1 31 -4 60 -10z m-4732
-1834 c175 -62 300 -243 300 -435 0 -281 -258 -507 -527 -462 -270 45 -449
317 -379 577 70 265 347 412 606 320z"/>
<path d="M3820 6754 c-380 -26 -696 -109 -1020 -270 -765 -380 -1287 -1102
-1425 -1971 -22 -138 -31 -471 -16 -629 49 -519 248 -1010 578 -1419 110 -136
317 -336 454 -438 473 -351 980 -520 1559 -520 408 0 783 87 1139 264 256 126
462 272 665 468 416 404 679 920 771 1511 19 120 30 496 18 582 l-8 57 -165
-68 -165 -67 -7 -180 c-13 -362 -82 -644 -233 -952 -119 -243 -259 -435 -456
-628 -543 -529 -1301 -744 -2048 -583 -306 67 -661 237 -911 438 -372 300
-650 724 -770 1175 -147 551 -93 1108 155 1614 120 245 259 436 461 633 329
320 738 525 1204 604 129 22 429 31 572 16 520 -54 973 -269 1354 -642 l130
-129 165 67 c90 37 166 68 168 70 8 5 -140 171 -235 263 -406 393 -924 644
-1474 714 -121 15 -367 26 -460 20z"/>
<path d="M3696 6290 c-128 -16 -280 -51 -416 -96 -727 -240 -1276 -854 -1435
-1604 -47 -220 -59 -522 -29 -752 105 -816 678 -1511 1460 -1771 238 -79 417
-107 679 -107 337 1 631 68 930 214 233 114 414 246 601 437 332 341 536 763
599 1243 19 147 21 360 3 353 -7 -3 -41 -17 -75 -32 l-63 -28 0 -52 c0 -169
-48 -437 -110 -620 -279 -817 -1037 -1365 -1890 -1365 -673 0 -1294 338 -1670
910 -152 232 -256 501 -307 795 -24 140 -24 490 0 630 108 619 465 1139 987
1437 659 375 1447 351 2085 -63 86 -56 197 -144 291 -232 l72 -67 63 26 c35
14 67 29 72 33 10 10 -201 214 -301 290 -274 207 -577 338 -947 408 -94 18
-492 26 -599 13z"/>
<path d="M3785 6044 c-27 -2 -60 -7 -72 -9 l-23 -5 0 -465 c0 -256 1 -465 3
-465 1 0 38 7 82 15 102 18 248 18 350 0 44 -8 81 -15 83 -15 1 0 2 209 2 464
0 432 -1 464 -17 471 -21 7 -336 15 -408 9z"/>
<path d="M2589 3639 c-216 -126 -396 -232 -398 -235 -3 -3 27 -69 67 -147 69
-135 178 -304 195 -301 8 2 787 452 796 460 2 2 -19 29 -48 60 -28 30 -69 87
-92 124 -46 78 -109 217 -109 242 0 9 -4 19 -9 22 -4 3 -185 -98 -402 -225z"/>
<path d="M4952 3745 l-103 -42 -40 -71 c-22 -39 -66 -104 -98 -144 l-58 -72
396 -232 396 -232 28 32 c43 48 135 200 190 314 27 57 48 105 46 107 -5 5
-609 359 -634 372 -16 8 -42 1 -123 -32z"/>
</g>
</svg>
