<?xml version="1.0" standalone="no"?>
<!DOCTYPE svg PUBLIC "-//W3C//DTD SVG 20010904//EN"
 "http://www.w3.org/TR/2001/REC-SVG-20010904/DTD/svg10.dtd">
<svg version="1.0" xmlns="http://www.w3.org/2000/svg"
 width="235.000000pt" height="235.000000pt" viewBox="0 0 235.000000 235.000000"
 preserveAspectRatio="xMidYMid meet">

<g transform="translate(0.000000,235.000000) scale(0.100000,-0.100000)"
fill="#000000" stroke="none">
<path d="M1075 2278 c-2 -7 -6 -41 -8 -76 -9 -109 -74 -162 -185 -149 -49 5
-96 44 -128 103 -11 20 -26 34 -37 34 -14 0 -90 -37 -116 -57 -2 -1 8 -29 23
-62 40 -89 34 -136 -23 -188 -70 -63 -127 -67 -213 -14 -27 17 -53 31 -58 31
-12 0 -80 -89 -80 -105 0 -6 19 -27 41 -45 49 -39 83 -107 73 -147 -12 -53
-52 -110 -90 -128 -29 -14 -51 -16 -109 -10 l-73 7 -12 -54 c-18 -80 -14 -89
51 -107 96 -27 129 -66 129 -153 0 -88 -39 -131 -153 -167 -41 -14 -41 -16
-24 -83 18 -68 25 -72 89 -58 100 23 157 -9 194 -106 23 -61 7 -113 -52 -173
-24 -24 -44 -48 -44 -54 0 -5 16 -30 36 -53 34 -42 66 -56 79 -34 11 19 79 57
113 65 24 5 44 1 77 -15 88 -42 119 -117 91 -213 -9 -30 -16 -62 -16 -70 0
-13 115 -65 124 -56 2 2 15 27 29 54 40 79 68 100 136 100 102 -1 157 -53 168
-160 7 -67 26 -80 101 -67 l47 7 6 71 c7 94 31 128 105 150 95 27 143 8 200
-82 19 -30 40 -54 47 -54 12 0 117 57 117 64 0 2 -11 28 -25 58 -44 94 -30
152 49 209 57 42 114 40 192 -7 l59 -36 33 39 c52 61 51 73 -9 130 -46 44 -52
55 -56 99 -12 119 78 195 205 175 52 -8 54 -7 64 18 5 14 12 47 15 72 5 40 3
48 -13 52 -11 3 -40 10 -66 17 -27 7 -58 24 -74 41 -24 25 -29 39 -32 97 -4
90 14 119 102 161 36 17 71 31 76 31 13 0 13 5 -8 75 -18 60 -19 60 -53 55
-19 -3 -60 -5 -91 -5 -64 0 -95 21 -129 87 -35 69 -21 123 53 204 l40 43 -31
39 c-54 69 -53 69 -123 22 -56 -37 -68 -41 -109 -38 -30 3 -59 15 -83 33 -69
52 -82 113 -46 205 11 28 20 53 20 56 0 8 -103 54 -120 54 -8 0 -29 -26 -45
-57 -39 -72 -80 -96 -151 -90 -29 3 -66 13 -84 22 -37 19 -69 82 -70 137 0 64
-5 68 -76 68 -43 0 -66 -4 -69 -12z m303 -332 c67 -18 187 -75 246 -115 81
-56 179 -164 229 -252 68 -121 97 -220 104 -354 12 -232 -62 -430 -220 -593
-156 -161 -346 -242 -567 -242 -232 0 -416 76 -571 237 -294 303 -296 797 -4
1097 118 121 255 199 410 231 86 18 296 13 373 -9z"/>
</g>
</svg>
